<svg width="8" height="7" viewBox="0 0 8 7" fill="none" xmlns="http://www.w3.org/2000/svg">
<g clip-path="url(#clip0_201_17265)">
<path d="M1.26721 6.0137H6.26528V5.45836H1.26721V6.0137ZM6.26528 2.40398H5.70994V1.57097H6.26528V2.40398ZM6.26528 1.01562H1.82255V3.79233C1.82255 4.0869 1.93957 4.36941 2.14786 4.5777C2.35616 4.786 2.63866 4.90301 2.93324 4.90301H4.59926C4.89383 4.90301 5.17634 4.786 5.38463 4.5777C5.59292 4.36941 5.70994 4.0869 5.70994 3.79233V2.95932H6.26528C6.41257 2.95932 6.55382 2.90081 6.65797 2.79666C6.76212 2.69252 6.82062 2.55126 6.82062 2.40398V1.57097C6.82062 1.26275 6.57072 1.01562 6.26528 1.01562Z" fill="black"/>
</g>
<defs>
<clipPath id="clip0_201_17265">
<rect width="6.6641" height="6.6641" fill="white" transform="translate(0.711914 0.182617)"/>
</clipPath>
</defs>
</svg>
