<svg width="7" height="8" viewBox="0 0 7 8" fill="none" xmlns="http://www.w3.org/2000/svg">
<g clip-path="url(#clip0_201_17565)">
<path d="M3.59816 1.44238C2.93537 1.44238 2.29973 1.70567 1.83107 2.17433C1.36241 2.64299 1.09912 3.27863 1.09912 3.94142C1.09912 4.6042 1.36241 5.23984 1.83107 5.7085C2.29973 6.17716 2.93537 6.44045 3.59816 6.44045C4.26094 6.44045 4.89658 6.17716 5.36524 5.7085C5.8339 5.23984 6.09719 4.6042 6.09719 3.94142C6.09719 3.80258 6.08609 3.66375 6.0611 3.52491C5.98612 3.38608 5.81952 3.38608 5.81952 3.38608H5.26418V3.10841C5.26418 2.83074 4.98651 2.83074 4.98651 2.83074H4.43117V2.55307C4.43117 2.27539 4.1535 2.27539 4.1535 2.27539H3.87583V1.72005C3.87583 1.44238 3.59816 1.44238 3.59816 1.44238ZM2.90398 2.27539C3.01444 2.27539 3.12038 2.31928 3.19849 2.39739C3.2766 2.4755 3.32049 2.58144 3.32049 2.6919C3.32049 2.80236 3.2766 2.9083 3.19849 2.98642C3.12038 3.06453 3.01444 3.10841 2.90398 3.10841C2.79352 3.10841 2.68758 3.06453 2.60947 2.98642C2.53136 2.9083 2.48747 2.80236 2.48747 2.6919C2.48747 2.58144 2.53136 2.4755 2.60947 2.39739C2.68758 2.31928 2.79352 2.27539 2.90398 2.27539ZM2.07097 3.38608C2.18143 3.38608 2.28737 3.42996 2.36548 3.50807C2.44359 3.58618 2.48747 3.69212 2.48747 3.80258C2.48747 3.91305 2.44359 4.01899 2.36548 4.0971C2.28737 4.17521 2.18143 4.21909 2.07097 4.21909C1.9605 4.21909 1.85456 4.17521 1.77645 4.0971C1.69834 4.01899 1.65446 3.91305 1.65446 3.80258C1.65446 3.69212 1.69834 3.58618 1.77645 3.50807C1.85456 3.42996 1.9605 3.38608 2.07097 3.38608ZM3.45932 3.66375C3.56979 3.66375 3.67573 3.70763 3.75384 3.78574C3.83195 3.86385 3.87583 3.96979 3.87583 4.08025C3.87583 4.19072 3.83195 4.29666 3.75384 4.37477C3.67573 4.45288 3.56979 4.49676 3.45932 4.49676C3.34886 4.49676 3.24292 4.45288 3.16481 4.37477C3.0867 4.29666 3.04282 4.19072 3.04282 4.08025C3.04282 3.96979 3.0867 3.86385 3.16481 3.78574C3.24292 3.70763 3.34886 3.66375 3.45932 3.66375ZM4.84767 4.21909C4.95814 4.21909 5.06408 4.26297 5.14219 4.34108C5.2203 4.41919 5.26418 4.52513 5.26418 4.6356C5.26418 4.74606 5.2203 4.852 5.14219 4.93011C5.06408 5.00822 4.95814 5.0521 4.84767 5.0521C4.73721 5.0521 4.63127 5.00822 4.55316 4.93011C4.47505 4.852 4.43117 4.74606 4.43117 4.6356C4.43117 4.52513 4.47505 4.41919 4.55316 4.34108C4.63127 4.26297 4.73721 4.21909 4.84767 4.21909ZM3.32049 5.0521C3.43095 5.0521 3.53689 5.09598 3.615 5.17409C3.69311 5.2522 3.73699 5.35814 3.73699 5.46861C3.73699 5.57907 3.69311 5.68501 3.615 5.76312C3.53689 5.84123 3.43095 5.88511 3.32049 5.88511C3.21002 5.88511 3.10408 5.84123 3.02597 5.76312C2.94786 5.68501 2.90398 5.57907 2.90398 5.46861C2.90398 5.35814 2.94786 5.2522 3.02597 5.17409C3.10408 5.09598 3.21002 5.0521 3.32049 5.0521Z" fill="black"/>
</g>
<defs>
<clipPath id="clip0_201_17565">
<rect width="6.6641" height="6.6641" fill="white" transform="translate(0.266113 0.609375)"/>
</clipPath>
</defs>
</svg>
