<svg width="8" height="7" viewBox="0 0 8 7" fill="none" xmlns="http://www.w3.org/2000/svg">
<g clip-path="url(#clip0_201_19479)">
<path d="M6.34252 2.8043C6.89786 3.63732 5.50951 6.13635 4.95417 6.13635C4.39883 6.13635 4.39883 5.85868 4.12115 5.85868C3.84348 5.85868 3.84348 6.13635 3.28814 6.13635C2.7328 6.13635 1.34445 3.63732 1.89979 2.8043C2.45513 1.97129 3.28814 1.97129 3.84348 2.24896V1.41595C2.28298 2.2684 1.93033 1.07719 1.93033 1.07719C1.93033 1.07719 2.66894 0.0803551 3.84348 1.41595V0.86061H4.39883V2.24896C4.95417 1.97129 5.78718 1.97129 6.34252 2.8043Z" fill="black"/>
</g>
<defs>
<clipPath id="clip0_201_19479">
<rect width="6.6641" height="6.6641" fill="white" transform="translate(0.789062 0.0273438)"/>
</clipPath>
</defs>
</svg>
