<?xml version="1.0" standalone="no"?>
<!DOCTYPE svg PUBLIC "-//W3C//DTD SVG 20010904//EN"
 "http://www.w3.org/TR/2001/REC-SVG-20010904/DTD/svg10.dtd">
<svg version="1.0" xmlns="http://www.w3.org/2000/svg"
 width="1024.000000pt" height="1024.000000pt" viewBox="0 0 1024.000000 1024.000000"
 preserveAspectRatio="xMidYMid meet">

<g transform="translate(0.000000,1024.000000) scale(0.100000,-0.100000)"
fill="#000000" stroke="none">
<path d="M5026 7024 c-146 -47 -244 -169 -254 -317 l-4 -72 -117 -22 c-632
-120 -1191 -494 -1552 -1038 -245 -368 -388 -831 -389 -1257 l0 -138 2410 0
2409 0 7 35 c3 20 1 113 -5 208 -22 329 -95 600 -242 896 -114 231 -244 414
-429 605 -367 378 -805 608 -1339 703 l-45 8 -3 63 c-8 134 -80 245 -197 302
-77 38 -176 48 -250 24z m-723 -895 c-105 -83 -283 -265 -362 -369 -196 -261
-343 -590 -405 -905 -13 -66 -46 -308 -46 -337 0 -4 -97 -8 -215 -8 -198 0
-215 1 -215 18 1 49 54 276 90 384 53 161 171 399 255 518 200 282 477 524
765 670 61 31 193 89 203 90 5 0 -27 -28 -70 -61z"/>
<path d="M2309 5936 c-44 -22 -47 -43 -42 -275 7 -260 3 -288 -39 -305 -37
-16 -64 -10 -83 17 -12 18 -15 68 -15 274 0 240 -1 254 -20 273 -26 26 -81 26
-104 1 -16 -17 -17 -51 -14 -387 l3 -369 27 -55 c28 -57 93 -130 140 -158 l28
-16 0 -378 0 -378 145 0 145 0 0 379 0 379 30 12 c46 19 126 112 152 178 22
55 23 69 26 407 3 346 3 351 -18 378 -28 35 -77 37 -108 4 -21 -23 -22 -30
-22 -279 0 -234 -1 -256 -18 -271 -25 -22 -75 -21 -95 1 -15 16 -17 50 -17
271 0 145 -4 260 -10 271 -14 27 -62 41 -91 26z"/>
<path d="M7905 5931 c-46 -27 -84 -78 -121 -156 -97 -209 -146 -640 -114
-1003 11 -124 25 -162 69 -188 16 -10 32 -27 35 -38 3 -12 6 -99 6 -193 l0
-173 145 0 145 0 -2 859 -3 859 -24 26 c-30 32 -91 35 -136 7z"/>
<path d="M1994 3878 c9 -103 39 -174 91 -214 l38 -29 178 -3 177 -3 13 -52
c39 -166 174 -308 339 -357 66 -20 99 -20 2298 -20 2193 0 2231 0 2293 20 77
24 176 87 223 141 45 53 93 144 109 210 l14 54 175 5 c192 6 203 9 253 74 35
47 55 115 55 193 l0 63 -3131 0 -3132 0 7 -82z"/>
</g>
</svg>
