<svg width="8" height="8" viewBox="0 0 8 8" fill="none" xmlns="http://www.w3.org/2000/svg">
<g clip-path="url(#clip0_201_23931)">
<path d="M4.25566 2.24447C4.55832 2.24447 4.811 1.98901 4.811 1.68913C4.811 1.37814 4.55832 1.13379 4.25566 1.13379C3.94744 1.13379 3.70031 1.37814 3.70031 1.68913C3.70031 1.98901 3.94744 2.24447 4.25566 2.24447ZM3.25326 6.09854L3.53094 4.88234L4.11682 5.43768V7.10371H4.67216V5.02118L4.08628 4.46584L4.25566 3.63282C4.61385 4.04933 5.16919 4.327 5.78284 4.327V3.77166C5.25249 3.77166 4.811 3.49399 4.58608 3.0997L4.30841 2.66098C4.19734 2.48882 4.03074 2.38331 3.83915 2.38331C3.75307 2.38331 3.70031 2.40552 3.61424 2.40552L2.17313 3.0164V4.327H2.72847V3.37737L3.2255 3.183L2.78122 5.43768L1.42064 5.16001L1.30957 5.71535L3.25326 6.09854Z" fill="black"/>
</g>
<defs>
<clipPath id="clip0_201_23931">
<rect width="6.6641" height="6.6641" fill="white" transform="translate(0.50708 0.717773)"/>
</clipPath>
</defs>
</svg>
