<svg width="8" height="8" viewBox="0 0 8 8" fill="none" xmlns="http://www.w3.org/2000/svg">
<g clip-path="url(#clip0_201_26345)">
<path d="M4.62346 3.5532H5.97849V3.0534H4.97333L4.41798 2.12875C4.33468 1.98992 4.18474 1.89551 4.01258 1.89551C3.9626 1.89551 3.91818 1.90384 3.87375 1.91772L2.36877 2.38699V3.83087H2.86858V2.81182L3.45447 2.62856L2.36877 6.88525H2.86858L3.6655 4.63334L4.31247 5.4969V6.88525H4.81228V5.10538L4.12088 3.84476L4.32358 3.04784L4.62346 3.5532ZM4.59014 1.83165C4.86781 1.83165 5.08995 1.60951 5.08995 1.33184C5.08995 1.05417 4.86781 0.832031 4.59014 0.832031C4.31247 0.832031 4.09033 1.05417 4.09033 1.33184C4.09033 1.60951 4.31247 1.83165 4.59014 1.83165Z" fill="black"/>
</g>
<defs>
<clipPath id="clip0_201_26345">
<rect width="6.6641" height="6.6641" fill="white" transform="translate(0.702759 0.777344)"/>
</clipPath>
</defs>
</svg>
